<svg width="20" height="20" viewBox="0 0 20 20" fill="none" xmlns="http://www.w3.org/2000/svg">
<path d="M17.083 8.49175H14.6747C12.6997 8.49175 11.0913 6.88341 11.0913 4.90841V2.50008C11.0913 2.04175 10.7163 1.66675 10.258 1.66675H6.72467C4.15801 1.66675 2.08301 3.33341 2.08301 6.30841V13.6917C2.08301 16.6667 4.15801 18.3334 6.72467 18.3334H13.2747C15.8413 18.3334 17.9163 16.6667 17.9163 13.6917V9.32508C17.9163 8.86675 17.5413 8.49175 17.083 8.49175ZM10.233 13.1501L8.56634 14.8167C8.50801 14.8751 8.43301 14.9251 8.35801 14.9501C8.28301 14.9834 8.20801 15.0001 8.12467 15.0001C8.04134 15.0001 7.96634 14.9834 7.89134 14.9501C7.82467 14.9251 7.75801 14.8751 7.70801 14.8251C7.69967 14.8167 7.69134 14.8167 7.69134 14.8084L6.02467 13.1417C5.78301 12.9001 5.78301 12.5001 6.02467 12.2584C6.26634 12.0167 6.66634 12.0167 6.90801 12.2584L7.49967 12.8667V9.37508C7.49967 9.03341 7.78301 8.75008 8.12467 8.75008C8.46634 8.75008 8.74967 9.03341 8.74967 9.37508V12.8667L9.34967 12.2667C9.59134 12.0251 9.99134 12.0251 10.233 12.2667C10.4747 12.5084 10.4747 12.9084 10.233 13.1501Z" fill="#198A29"/>
<path d="M14.5251 7.34158C15.3167 7.34991 16.4167 7.34991 17.3584 7.34991C17.8334 7.34991 18.0834 6.79158 17.7501 6.45825C16.5501 5.24991 14.4001 3.07491 13.1667 1.84158C12.8251 1.49991 12.2334 1.73325 12.2334 2.20825V5.11658C12.2334 6.33325 13.2667 7.34158 14.5251 7.34158Z" fill="#198A29"/>
</svg>
