<svg width="19" height="18" viewBox="0 0 19 18" fill="none" xmlns="http://www.w3.org/2000/svg">
<g clip-path="url(#clip0_225_3228)">
<path d="M9.12206 2.25C13.1661 2.25 16.5306 5.16 17.2363 9C16.5313 12.84 13.1661 15.75 9.12206 15.75C5.07806 15.75 1.71356 12.84 1.00781 9C1.71281 5.16 5.07806 2.25 9.12206 2.25ZM9.12206 14.25C10.6517 14.2497 12.1359 13.7301 13.3317 12.7764C14.5276 11.8226 15.3642 10.4912 15.7048 9C15.363 7.50998 14.5258 6.18 13.33 5.22752C12.1343 4.27504 10.6508 3.7564 9.12206 3.7564C7.59334 3.7564 6.10983 4.27504 4.91409 5.22752C3.71836 6.18 2.88114 7.50998 2.53931 9C2.87988 10.4912 3.71657 11.8226 4.91242 12.7764C6.10827 13.7301 7.59246 14.2497 9.12206 14.25ZM9.12206 12.375C8.22696 12.375 7.36851 12.0194 6.73558 11.3865C6.10264 10.7535 5.74706 9.89511 5.74706 9C5.74706 8.10489 6.10264 7.24645 6.73558 6.61351C7.36851 5.98058 8.22696 5.625 9.12206 5.625C10.0172 5.625 10.8756 5.98058 11.5085 6.61351C12.1415 7.24645 12.4971 8.10489 12.4971 9C12.4971 9.89511 12.1415 10.7535 11.5085 11.3865C10.8756 12.0194 10.0172 12.375 9.12206 12.375ZM9.12206 10.875C9.61934 10.875 10.0963 10.6775 10.4479 10.3258C10.7995 9.97419 10.9971 9.49728 10.9971 9C10.9971 8.50272 10.7995 8.02581 10.4479 7.67417C10.0963 7.32254 9.61934 7.125 9.12206 7.125C8.62478 7.125 8.14787 7.32254 7.79624 7.67417C7.44461 8.02581 7.24706 8.50272 7.24706 9C7.24706 9.49728 7.44461 9.97419 7.79624 10.3258C8.14787 10.6775 8.62478 10.875 9.12206 10.875Z" fill="#53545B"/>
</g>
<defs>
<clipPath id="clip0_225_3228">
<rect width="18" height="18" fill="white" transform="translate(0.121094)"/>
</clipPath>
</defs>
</svg>
