<svg width="28" height="28" viewBox="0 0 28 28" fill="none" xmlns="http://www.w3.org/2000/svg">
<g clip-path="url(#clip0_225_3154)">
<path d="M14 28C21.732 28 28 21.732 28 14C28 6.26801 21.732 0 14 0C6.26801 0 0 6.26801 0 14C0 21.732 6.26801 28 14 28Z" fill="white"/>
<path d="M17.5206 14.5484H15.0225V23.7004H11.2376V14.5484H9.4375V11.3321H11.2376V9.25071C11.2376 7.76231 11.9446 5.43164 15.0562 5.43164L17.8598 5.44337V8.56541H15.8256C15.4919 8.56541 15.0227 8.73211 15.0227 9.44212V11.3351H17.8513L17.5206 14.5484Z" fill="#157B23"/>
</g>
<defs>
<clipPath id="clip0_225_3154">
<rect width="28" height="28" fill="white"/>
</clipPath>
</defs>
</svg>
