<svg width="28" height="28" viewBox="0 0 28 28" fill="none" xmlns="http://www.w3.org/2000/svg">
<g clip-path="url(#clip0_225_3144)">
<path d="M14 28C21.732 28 28 21.732 28 14C28 6.26801 21.732 0 14 0C6.26801 0 0 6.26801 0 14C0 21.732 6.26801 28 14 28Z" fill="white"/>
<path d="M18.0103 22.75H9.98966C7.37625 22.75 5.25 20.624 5.25 18.0103V9.98966C5.25 7.37603 7.37625 5.25 9.98966 5.25H18.0103C20.624 5.25 22.75 7.37603 22.75 9.98966V18.0106C22.75 20.624 20.624 22.75 18.0103 22.75ZM9.98966 6.70841C8.18038 6.70841 6.70841 8.18038 6.70841 9.98966V18.0106C6.70841 19.8198 8.18038 21.2918 9.98966 21.2918H18.0103C19.8196 21.2918 21.2916 19.8198 21.2916 18.0106V9.98966C21.2916 8.18038 19.8196 6.70841 18.0103 6.70841H9.98966Z" fill="#157B23"/>
<path d="M14 18.375C11.5876 18.375 9.625 16.4122 9.625 14C9.625 11.5874 11.5876 9.625 14 9.625C16.4124 9.625 18.375 11.5874 18.375 14C18.375 16.4122 16.4124 18.375 14 18.375ZM14 11.0834C12.3917 11.0834 11.0834 12.3917 11.0834 14C11.0834 15.6085 12.3917 16.9166 14 16.9166C15.6083 16.9166 16.9166 15.6085 16.9166 14C16.9166 12.3917 15.6085 11.0834 14 11.0834Z" fill="#157B23"/>
<path d="M18.6471 10.3547C19.2007 10.3547 19.6496 9.90582 19.6496 9.35214C19.6496 8.79846 19.2007 8.34961 18.6471 8.34961C18.0934 8.34961 17.6445 8.79846 17.6445 9.35214C17.6445 9.90582 18.0934 10.3547 18.6471 10.3547Z" fill="#157B23"/>
</g>
<defs>
<clipPath id="clip0_225_3144">
<rect width="28" height="28" fill="white"/>
</clipPath>
</defs>
</svg>
