<svg width="20" height="20" viewBox="0 0 20 20" fill="none" xmlns="http://www.w3.org/2000/svg">
<path d="M13.4915 1.66675H6.50817C3.47484 1.66675 1.6665 3.47508 1.6665 6.50841V13.4834C1.6665 16.5251 3.47484 18.3334 6.50817 18.3334H13.4832C16.5165 18.3334 18.3248 16.5251 18.3248 13.4917V6.50841C18.3332 3.47508 16.5248 1.66675 13.4915 1.66675ZM13.9582 11.4251C13.9582 12.6917 12.9332 13.7167 11.6665 13.7167C10.3998 13.7167 9.37484 12.6917 9.37484 11.4251V9.75841C9.37484 9.41675 9.65817 9.13341 9.99984 9.13341C10.3415 9.13341 10.6248 9.41675 10.6248 9.75841V11.4251C10.6248 12.0001 11.0915 12.4667 11.6665 12.4667C12.2415 12.4667 12.7082 12.0001 12.7082 11.4251V8.80841C12.7082 7.31675 11.4915 6.10008 9.99984 6.10008C8.50817 6.10008 7.2915 7.31675 7.2915 8.80841V11.6667C7.2915 12.9001 8.2915 13.9001 9.52484 13.9001C9.8665 13.9001 10.1498 14.1834 10.1498 14.5251C10.1498 14.8667 9.8665 15.1501 9.52484 15.1501C7.60817 15.1501 6.0415 13.5834 6.0415 11.6667V8.80841C6.0415 6.62508 7.8165 4.85008 9.99984 4.85008C12.1832 4.85008 13.9582 6.62508 13.9582 8.80841V11.4251Z" fill="#198A29"/>
</svg>
