<svg width="28" height="28" viewBox="0 0 28 28" fill="none" xmlns="http://www.w3.org/2000/svg">
<g clip-path="url(#clip0_225_3140)">
<path d="M14 28C21.732 28 28 21.732 28 14C28 6.26801 21.732 0 14 0C6.26801 0 0 6.26801 0 14C0 21.732 6.26801 28 14 28Z" fill="white"/>
<path d="M13.4749 18.1615C12.8022 18.8123 12.1405 19.4576 11.4788 20.1029C11.2491 20.3272 10.9921 20.4529 10.6585 20.4365C10.4343 20.4256 10.3085 20.3272 10.2374 20.1139C9.73426 18.5498 9.2202 16.9858 8.71707 15.4162C8.66785 15.2631 8.59676 15.192 8.44363 15.1428C7.25691 14.7818 6.06473 14.41 4.88348 14.0326C4.70301 13.9725 4.51707 13.9014 4.35848 13.792C4.11238 13.6279 4.07957 13.36 4.29832 13.1631C4.50066 12.9826 4.74129 12.8295 4.99285 12.7311C6.44754 12.1568 7.9077 11.599 9.36785 11.0358C13.0702 9.60841 16.7725 8.1756 20.4749 6.74825C21.1804 6.47482 21.7218 6.85763 21.6452 7.62325C21.596 8.10997 21.4702 8.59122 21.3718 9.07247C20.5679 12.8678 19.7639 16.6686 18.9546 20.4639C18.7632 21.3662 18.1288 21.6014 17.3905 21.0545C16.1491 20.1412 14.9077 19.2225 13.6663 18.3037C13.6061 18.2545 13.546 18.2108 13.4749 18.1615ZM10.6858 19.3154C10.7022 19.31 10.7132 19.31 10.7296 19.3045C10.735 19.2662 10.746 19.2334 10.7514 19.2006C10.8335 18.342 10.9155 17.4779 10.9866 16.6193C11.003 16.4279 11.0686 16.2912 11.2108 16.16C12.3538 15.1373 13.4968 14.1037 14.6343 13.0756C15.8975 11.9381 17.1608 10.8006 18.4186 9.65763C18.4952 9.58654 18.528 9.46622 18.5827 9.36779C18.4624 9.35685 18.3366 9.30763 18.2272 9.33497C18.0796 9.37325 17.9429 9.46075 17.8116 9.54279C15.028 11.2983 12.2389 13.0537 9.45535 14.8092C9.29676 14.9076 9.26941 14.9897 9.32957 15.1647C9.53738 15.7553 9.72332 16.3514 9.91473 16.9475C10.1718 17.735 10.4288 18.5279 10.6858 19.3154Z" fill="#157B23"/>
</g>
<defs>
<clipPath id="clip0_225_3140">
<rect width="28" height="28" fill="white"/>
</clipPath>
</defs>
</svg>
