<svg width="28" height="28" viewBox="0 0 28 28" fill="none" xmlns="http://www.w3.org/2000/svg">
<path fill-rule="evenodd" clip-rule="evenodd" d="M14 0C21.7321 0 28.0001 6.268 28.0001 14C28.0001 21.7321 21.7321 28.0001 14 28.0001C6.268 28.0001 0 21.7321 0 14C0 6.268 6.268 0 14 0ZM16.8108 5.93385C16.8391 6.17552 16.8801 6.40937 16.9335 6.63449L17.463 6.63466C17.5613 7.47391 17.7995 8.24066 18.1741 8.87721C18.7858 9.44379 19.585 9.79315 20.5496 9.85506V10.6284C20.7286 10.6657 20.915 10.6911 21.109 10.7035V13.1974C19.8618 13.3202 18.7703 12.9096 17.4986 12.1448L17.6938 16.4159C17.6938 17.7933 17.6989 18.4228 16.9598 19.6899C15.2339 22.6485 12.0715 22.7707 10.057 21.2289C9.0264 20.8714 8.1192 20.1818 7.54699 19.2456C5.87749 16.5142 7.38243 12.0626 12.2247 11.6044L12.2168 12.2626V12.4281C12.4776 12.3738 12.7515 12.332 13.0395 12.3048V14.9349C11.9909 15.1077 11.3249 15.4296 11.0135 16.0252C10.3899 17.2178 10.6734 18.2534 11.3256 18.9072C12.6928 19.142 14.2153 18.1948 13.9861 15.2657V5.93377H16.8109L16.8108 5.93385Z" fill="white"/>
</svg>
