<svg width="28" height="28" viewBox="0 0 28 28" fill="none" xmlns="http://www.w3.org/2000/svg">
<g clip-path="url(#clip0_225_3158)">
<path fill-rule="evenodd" clip-rule="evenodd" d="M14 28C21.732 28 28 21.732 28 14C28 6.26801 21.732 0 14 0C6.26801 0 0 6.26801 0 14C0 21.732 6.26801 28 14 28Z" fill="white"/>
<path fill-rule="evenodd" clip-rule="evenodd" d="M12.074 16.4381L12.0734 11.1561L17.1169 13.8062L12.074 16.4381ZM23.148 10.2408C23.148 10.2408 22.9654 8.94547 22.406 8.37504C21.6961 7.62601 20.9004 7.62249 20.5358 7.57901C17.9236 7.38867 14.0054 7.38867 14.0054 7.38867H13.9972C13.9972 7.38867 10.079 7.38867 7.4668 7.57901C7.10164 7.62249 6.30655 7.62601 5.59605 8.37504C5.03664 8.94547 4.85464 10.2408 4.85464 10.2408C4.85464 10.2408 4.66797 11.7624 4.66797 13.2834V14.7097C4.66797 16.2313 4.85464 17.7523 4.85464 17.7523C4.85464 17.7523 5.03664 19.0476 5.59605 19.6181C6.30655 20.3671 7.2393 20.3436 7.65464 20.4217C9.14797 20.5662 14.0013 20.6109 14.0013 20.6109C14.0013 20.6109 17.9236 20.605 20.5358 20.4147C20.9004 20.3706 21.6961 20.3671 22.406 19.6181C22.9654 19.0476 23.148 17.7523 23.148 17.7523C23.148 17.7523 23.3346 16.2313 23.3346 14.7097V13.2834C23.3346 11.7624 23.148 10.2408 23.148 10.2408Z" fill="#157B23"/>
</g>
<defs>
<clipPath id="clip0_225_3158">
<rect width="28" height="28" fill="white"/>
</clipPath>
</defs>
</svg>
